<svg width="32" height="32" viewBox="0 0 58 36" fill="none" xmlns="http://www.w3.org/2000/svg">
  <path d="M17.4883 23.7672L21.6478 5.55469H11.5374C9.94962 5.58506 8.41172 6.11455 7.14191 7.06804C5.87209 8.02153 4.93485 9.35061 4.46317 10.8667V11.0791L4.28101 11.7469L0 30.3844H10.3533C11.8505 30.3595 13.3037 29.8742 14.5151 28.9943C15.7266 28.1145 16.6375 26.8828 17.1239 25.467L17.4883 23.7672ZM15.7577 16.8161C15.5731 17.5524 15.1451 18.2049 14.5432 18.6677C13.9864 19.1737 13.2615 19.4549 12.509 19.4569H7.89404L7.37788 21.6424C7.19184 22.3674 6.77956 23.0143 6.20085 23.4891C5.62213 23.964 4.90711 24.2421 4.15956 24.2832L6.49742 14.2056C6.699 13.5757 7.09158 13.0241 7.62078 12.6272C8.18211 12.1322 8.90654 11.862 9.655 11.8683H18.7635C18.5826 12.5987 18.1665 13.2493 17.5794 13.7199C17.0084 14.1986 16.2902 14.4666 15.5451 14.4788H9.29067L8.80488 16.5732H15.6666L15.7577 16.8161Z" fill="#1669B2"/>
  <path d="M30.8472 0.121419C29.2286 0.12765 27.6562 0.661551 26.3685 1.64211C25.0809 2.62268 24.1483 3.99639 23.7122 5.55481L23.5301 6.28331L16.6684 36H26.7788C28.4358 35.9947 30.0437 35.4363 31.3472 34.4135C32.6508 33.3907 33.5754 31.962 33.9745 30.3541L40.9576 0L30.8472 0.121419ZM35.1282 16.8162C34.9359 17.6003 34.5128 18.3087 33.9137 18.8499C33.3348 19.2727 32.625 19.477 31.9099 19.4267H25.8376L25.3518 21.6425C25.1672 22.3789 24.7392 23.0313 24.1373 23.4941C23.5805 24.0001 22.8556 24.2814 22.1031 24.2833L24.9875 11.8685H33.8226C34.1085 11.8586 34.3934 11.9074 34.6597 12.0118C34.926 12.1162 35.1681 12.274 35.3711 12.4756C35.5626 12.6718 35.7124 12.9047 35.8115 13.1603C35.9106 13.4159 35.957 13.6889 35.9479 13.9629C35.9644 14.1548 35.9644 14.3478 35.9479 14.5396L35.1282 16.8162Z" fill="#F17228"/>
  <path d="M57.8685 5.64653H47.7582C46.2263 5.67135 44.7388 6.16465 43.4957 7.06007C42.2527 7.95549 41.3138 9.21006 40.8054 10.655L40.5321 11.4138L36.1297 30.4762H46.2401C47.9363 30.4553 49.5757 29.8625 50.8927 28.7937C52.2098 27.7249 53.1273 26.2428 53.4965 24.5875L57.8685 5.64653ZM49.0637 14.601L47.4242 21.6432C47.2747 22.3866 46.8523 23.0471 46.2401 23.4948C45.6833 24.0008 44.9583 24.282 44.2058 24.284L46.4526 14.601H44.4791C44.2002 14.6125 43.9219 14.5673 43.661 14.4681C43.4001 14.369 43.162 14.218 42.9611 14.0243C42.7658 13.8245 42.6138 13.5866 42.5145 13.3255C42.4153 13.0643 42.3709 12.7856 42.3842 12.5066C42.3693 12.3247 42.3693 12.142 42.3842 11.9602H51.7355C52.0193 11.9463 52.3028 11.9903 52.569 12.0895C52.8352 12.1886 53.0785 12.3408 53.284 12.5369C53.4763 12.7388 53.6264 12.977 53.7255 13.2376C53.8245 13.4982 53.8706 13.776 53.8608 14.0546C53.8608 14.2367 53.8608 14.4189 53.8608 14.601H49.0637Z" fill="#24B14B"/>
</svg>
